<svg xmlns="http://www.w3.org/2000/svg" viewBox="0 0 646 55"><title>kazumi_inada</title><g id="レイヤー_2" data-name="レイヤー 2"><path d="M5.76,2.77H16.41V24.12l20-21.35h14L29.16,24.08,51.51,54.59H37.59L21.62,32l-5.21,5.29V54.59H5.76Z"/><path d="M83.19,2.77H95.45l18.33,51.82H102L98.62,43.94H79.54L76,54.59H64.7ZM82.48,35H95.75L89.21,14.62Z"/><path d="M127.52,45.45,154,11.94H128.18V2.77h39.27v8.68l-26.83,34h26.9v9.14h-40Z"/><path d="M186,2.77h11V34.59q0,5.34,1.26,7.8,2,4.36,8.55,4.36t8.51-4.36q1.26-2.46,1.26-7.8V2.77h11V34.62q0,8.27-2.56,12.87-4.77,8.43-18.21,8.43t-18.25-8.43Q186,42.89,186,34.62Z"/><path d="M283.12,2.77h15.59V54.59H288.62V19.54c0-1,0-2.42,0-4.24s0-3.22,0-4.2l-9.82,43.49H268.34L258.59,11.1c0,1,0,2.38,0,4.2s0,3.23,0,4.24V54.59H248.57V2.77h15.76l9.43,40.74Z"/><path d="M329.4,54.59H318.65V2.77H329.4Z"/><path d="M391,54.59H380.25V2.77H391Z"/><path d="M411.76,2.77h11.35L443.68,38.9V2.77h10.09V54.59H443l-21.1-36.77V54.59H411.76Z"/><path d="M489.55,2.77H501.8l18.34,51.82H508.4L505,43.94H485.89l-3.51,10.65H471.05ZM488.84,35h13.27l-6.55-20.39Z"/><path d="M567.89,3.89a17.11,17.11,0,0,1,8.83,6.58,23,23,0,0,1,3.7,8.36,39.92,39.92,0,0,1,1,8.58q0,10.33-4.15,17.51-5.62,9.67-17.38,9.67H537.53V2.77h22.34A27.15,27.15,0,0,1,567.89,3.89ZM548,11.77V45.59h10q7.68,0,10.71-7.56a26.72,26.72,0,0,0,1.65-9.88q0-7.91-2.48-12.15T558,11.77Z"/><path d="M615.14,2.77H627.4l18.33,51.82H634l-3.42-10.65H611.48L608,54.59H596.65ZM614.43,35H627.7l-6.54-20.39Z"/></g></svg>
